<?xml version="1.0" standalone="no"?><svg xmlns="http://www.w3.org/2000/svg" viewBox="0 50 1440 200"><path fill="#1c1e23" fill-opacity="1" d="M0,256L24,224C48,192,96,128,144,101.3C192,75,240,85,288,128C336,171,384,245,432,250.7C480,256,528,192,576,149.3C624,107,672,85,720,74.7C768,64,816,64,864,58.7C912,53,960,43,1008,85.3C1056,128,1104,224,1152,234.7C1200,245,1248,171,1296,144C1344,117,1392,139,1416,149.3L1440,160L1440,0L1416,0C1392,0,1344,0,1296,0C1248,0,1200,0,1152,0C1104,0,1056,0,1008,0C960,0,912,0,864,0C816,0,768,0,720,0C672,0,624,0,576,0C528,0,480,0,432,0C384,0,336,0,288,0C240,0,192,0,144,0C96,0,48,0,24,0L0,0Z"></path></svg>